<svg xmlns="http://www.w3.org/2000/svg" viewBox="0 0 512 512">
  <defs>
    <linearGradient id="gold" x1="92" y1="64" x2="350" y2="413" gradientUnits="userSpaceOnUse">
      <stop offset="0%" stop-color="#d7ba84"/>
      <stop offset="52%" stop-color="#b68a3d"/>
      <stop offset="100%" stop-color="#8a6226"/>
    </linearGradient>
    <radialGradient id="iris" cx="0" cy="0" r="1" gradientUnits="userSpaceOnUse" gradientTransform="translate(306 191) rotate(90) scale(76)">
      <stop offset="0%" stop-color="#b6d3f3"/>
      <stop offset="58%" stop-color="#38597d"/>
      <stop offset="100%" stop-color="#16273b"/>
    </radialGradient>
  </defs>
  <rect width="512" height="512" rx="120" fill="#fbf4e8"/>
  <path d="M91 454V196.7C91 113.82 158.18 46.64 241.06 46.64C323.94 46.64 391.12 113.82 391.12 196.7C391.12 250.12 363.04 297.49 320.84 324.09L241.86 374.48L195.27 301.19L269.01 255.31C293.94 239.38 309.76 211.6 309.76 182.13C309.76 135.45 271.92 97.61 225.24 97.61C178.56 97.61 140.72 135.45 140.72 182.13V340.99L190.67 292.18L248.57 351.32L145.07 454H91Z" fill="url(#gold)"/>
  <circle cx="305.72" cy="190.61" r="99.72" fill="#f3e7ca"/>
  <circle cx="305.72" cy="190.61" r="71.01" fill="url(#iris)"/>
  <circle cx="305.72" cy="190.61" r="33.52" fill="#1b2230"/>
  <circle cx="326.45" cy="165.87" r="12.03" fill="#ffffff"/>
  <circle cx="267.93" cy="140.34" r="16.64" fill="#f8e7bc" fill-opacity=".88"/>
  <circle cx="394.86" cy="108.47" r="21.7" fill="#f4d291" fill-opacity=".92"/>
</svg>
