<svg xmlns="http://www.w3.org/2000/svg" viewBox="0 0 512 512">
  <defs>
    <linearGradient id="gold" x1="104" y1="76" x2="356" y2="416" gradientUnits="userSpaceOnUse">
      <stop offset="0%" stop-color="#d7ba84"/>
      <stop offset="52%" stop-color="#b68a3d"/>
      <stop offset="100%" stop-color="#8a6226"/>
    </linearGradient>
    <radialGradient id="iris" cx="0" cy="0" r="1" gradientUnits="userSpaceOnUse" gradientTransform="translate(312 194) rotate(90) scale(72)">
      <stop offset="0%" stop-color="#b6d3f3"/>
      <stop offset="58%" stop-color="#38597d"/>
      <stop offset="100%" stop-color="#16273b"/>
    </radialGradient>
  </defs>
  <rect width="512" height="512" rx="156" fill="#fbf4e8"/>
  <path d="M104 431V205.6C104 132.97 162.87 74.1 235.5 74.1C308.13 74.1 367 132.97 367 205.6C367 252.41 342.41 293.92 305.45 317.23L236.3 361.34L195.51 297.17L260.06 257.03C281.89 243.09 295.74 218.66 295.74 192.75C295.74 151.71 262.48 118.46 221.45 118.46C180.42 118.46 147.16 151.71 147.16 192.75V332.34L190.88 289.61L241.58 341.39L150.97 431H104Z" fill="url(#gold)"/>
  <circle cx="304.98" cy="193.47" r="95.12" fill="#f3e7ca"/>
  <circle cx="304.98" cy="193.47" r="67.86" fill="url(#iris)"/>
  <circle cx="304.98" cy="193.47" r="32.04" fill="#1b2230"/>
  <circle cx="324.79" cy="169.83" r="11.49" fill="#ffffff"/>
  <circle cx="268.87" cy="145.44" r="15.9" fill="#f8e7bc" fill-opacity=".88"/>
  <circle cx="390.16" cy="114.99" r="20.74" fill="#f4d291" fill-opacity=".92"/>
</svg>
